<svg width="90" height="90" viewBox="0 0 90 90" fill="none" xmlns="http://www.w3.org/2000/svg">
<circle cx="45" cy="45" r="45" fill="#068B47"/>
<path d="M45 27.5089L74 39.3156L45 51.0467L23.3615 42.2673C22.0231 43.4026 21.0564 45.219 20.9077 47.2625H21.4282C22.0231 47.2625 22.4692 47.7166 22.4692 48.322V51.1224C22.4692 51.7278 22.0231 52.1819 21.4282 52.1819H21.0564L22.4692 66.8647C22.5436 67.4702 22.0974 68 21.5026 68H18.9C18.3051 68 17.859 67.4702 17.859 66.8647L19.3462 52.1819H18.9744C18.3795 52.1819 17.859 51.7278 17.859 51.1224V48.322C17.859 47.7166 18.3795 47.2625 18.9744 47.2625H19.7923C19.941 45.0676 20.9077 43.1755 22.2462 41.8132L16 39.3156L45 27.5089ZM44.1821 53.1658L45 53.4686L45.8179 53.1658L61.7308 46.657L62.9205 60.0531C62.9949 60.9613 62.4 61.3398 61.5821 60.9613L55.3359 57.7069C54.518 57.2528 53.1795 57.3285 52.4359 57.7826L46.4128 61.2641C45.6692 61.7182 44.3308 61.7182 43.5872 61.2641L37.5641 57.7826C36.8205 57.3285 35.4821 57.2528 34.7385 57.7069L28.4179 60.9613C27.6 61.4154 27.0051 60.9613 27.0795 60.0531L28.2692 46.657L44.1821 53.1658Z" fill="white"/>
</svg>
