<svg width="90" height="90" viewBox="0 0 90 90" fill="none" xmlns="http://www.w3.org/2000/svg">
<circle cx="45" cy="45" r="45" fill="#068B47"/>
<path d="M46 43.5C50.9219 43.5 55 39.4922 55 34.5C55 29.5781 50.9219 25.5 46 25.5C41.0078 25.5 37 29.5781 37 34.5C37 39.4922 41.0078 43.5 46 43.5ZM52.6797 45.8203L49.375 59.25L47.125 49.6875L49.375 45.75H42.625L44.875 49.6875L42.625 59.25L39.25 45.8203C34.1875 46.0312 30.25 50.1797 30.25 55.2422V58.125C30.25 60.0234 31.7266 61.5 33.625 61.5H58.375C60.2031 61.5 61.75 60.0234 61.75 58.125V55.2422C61.75 50.1797 57.7422 46.0312 52.6797 45.8203Z" fill="white"/>
</svg>
