<svg width="90" height="90" viewBox="0 0 90 90" fill="none" xmlns="http://www.w3.org/2000/svg">
<circle cx="45" cy="45" r="45" fill="#068B47"/>
<path d="M30.75 41.25C33.2109 41.25 35.25 39.2812 35.25 36.75C35.25 34.2891 33.2109 32.25 30.75 32.25C28.2188 32.25 26.25 34.2891 26.25 36.75C26.25 39.2812 28.2188 41.25 30.75 41.25ZM62.25 41.25C64.7109 41.25 66.75 39.2812 66.75 36.75C66.75 34.2891 64.7109 32.25 62.25 32.25C59.7188 32.25 57.75 34.2891 57.75 36.75C57.75 39.2812 59.7188 41.25 62.25 41.25ZM64.5 43.5H60C58.7344 43.5 57.6094 44.0625 56.7656 44.8359C59.6484 46.3828 61.6172 49.1953 62.1094 52.5H66.75C67.9453 52.5 69 51.5156 69 50.25V48C69 45.5391 66.9609 43.5 64.5 43.5ZM46.5 43.5C50.7891 43.5 54.375 39.9844 54.375 35.625C54.375 31.3359 50.7891 27.75 46.5 27.75C42.1406 27.75 38.625 31.3359 38.625 35.625C38.625 39.9844 42.1406 43.5 46.5 43.5ZM51.8438 45.75H51.2812C49.8047 46.4531 48.1875 46.875 46.5 46.875C44.7422 46.875 43.125 46.4531 41.6484 45.75H41.0859C36.5859 45.75 33 49.4062 33 53.9062V55.875C33 57.7734 34.4766 59.25 36.375 59.25H56.625C58.4531 59.25 60 57.7734 60 55.875V53.9062C60 49.4062 56.3438 45.75 51.8438 45.75ZM36.1641 44.8359C35.3203 44.0625 34.1953 43.5 33 43.5H28.5C25.9688 43.5 24 45.5391 24 48V50.25C24 51.5156 24.9844 52.5 26.25 52.5H30.8203C31.3125 49.1953 33.2812 46.3828 36.1641 44.8359Z" fill="white"/>
</svg>
