<svg width="90" height="90" viewBox="0 0 90 90" fill="none" xmlns="http://www.w3.org/2000/svg">
<circle cx="45" cy="45" r="45" fill="#068B47"/>
<path d="M45.0859 38.8594V43.6406C46.9141 44.0625 48.5312 44.7656 50.2188 45.2578V40.4766C48.3906 40.0547 46.7734 39.3516 45.0859 38.8594ZM60.7656 30.2109C58.375 31.3359 55.4219 32.4609 52.5391 32.4609C48.8125 32.4609 45.6484 30 40.9375 30C39.1797 30 37.6328 30.3516 36.1562 30.8438C36.3672 30.3516 36.4375 29.7891 36.3672 29.2266C36.2969 27.1875 34.6094 25.6406 32.6406 25.5C30.3906 25.4297 28.5625 27.2578 28.5625 29.4375C28.5625 30.7734 29.1953 31.9688 30.25 32.6719V59.8125C30.25 60.7969 30.9531 61.5 31.9375 61.5H33.0625C33.9766 61.5 34.75 60.7969 34.75 59.8125V53.2031C36.7188 52.3594 39.1797 51.6562 42.7656 51.6562C46.5625 51.6562 49.6562 54.1172 54.3672 54.1172C57.7422 54.1172 60.4844 52.9219 63.0156 51.2344C63.5781 50.8125 63.9297 50.1094 63.9297 49.3359V32.25C64 30.6328 62.2422 29.5781 60.7656 30.2109ZM39.8828 48.4219C38.0547 48.6328 36.3672 48.9844 34.75 49.6172V44.625C36.5781 43.9922 38.0547 43.5703 39.8828 43.4297V48.4219ZM60.625 38.9297C58.9375 39.6328 57.3203 40.3359 55.4219 40.6172V45.6094C57.1797 45.3984 59.0078 44.8359 60.625 43.7812V48.7734C58.7969 49.8984 57.1797 50.5312 55.4219 50.6719V45.6094C53.5234 45.8906 52.0469 45.75 50.2188 45.2578V49.9688C48.5312 49.4766 46.9141 48.8438 45.0859 48.4922V43.6406C43.6797 43.3594 42.2031 43.2188 39.8828 43.4297V38.5078C38.3359 38.7188 36.7891 39.2109 34.75 39.9844V34.9922C37.0703 34.1484 38.2656 33.5859 39.8828 33.4453V38.5078C41.7812 38.2266 43.3281 38.3672 45.0859 38.8594V34.1484C46.7031 34.6406 48.3906 35.3438 50.2188 35.625V40.4766C51.9062 40.8281 53.5938 40.9688 55.4219 40.6172V35.5547C57.3203 35.2734 59.0781 34.6406 60.625 34.0078V38.9297Z" fill="white"/>
</svg>
