<svg width="36" height="37" viewBox="0 0 36 37" fill="none" xmlns="http://www.w3.org/2000/svg">
<path d="M17.0859 13.8594V18.6406C18.9141 19.0625 20.5312 19.7656 22.2188 20.2578V15.4766C20.3906 15.0547 18.7734 14.3516 17.0859 13.8594ZM32.7656 5.21094C30.375 6.33594 27.4219 7.46094 24.5391 7.46094C20.8125 7.46094 17.6484 5 12.9375 5C11.1797 5 9.63281 5.35156 8.15625 5.84375C8.36719 5.35156 8.4375 4.78906 8.36719 4.22656C8.29688 2.1875 6.60938 0.640625 4.64062 0.5C2.39062 0.429688 0.5625 2.25781 0.5625 4.4375C0.5625 5.77344 1.19531 6.96875 2.25 7.67188V34.8125C2.25 35.7969 2.95312 36.5 3.9375 36.5H5.0625C5.97656 36.5 6.75 35.7969 6.75 34.8125V28.2031C8.71875 27.3594 11.1797 26.6562 14.7656 26.6562C18.5625 26.6562 21.6562 29.1172 26.3672 29.1172C29.7422 29.1172 32.4844 27.9219 35.0156 26.2344C35.5781 25.8125 35.9297 25.1094 35.9297 24.3359V7.25C36 5.63281 34.2422 4.57812 32.7656 5.21094ZM11.8828 23.4219C10.0547 23.6328 8.36719 23.9844 6.75 24.6172V19.625C8.57812 18.9922 10.0547 18.5703 11.8828 18.4297V23.4219ZM32.625 13.9297C30.9375 14.6328 29.3203 15.3359 27.4219 15.6172V20.6094C29.1797 20.3984 31.0078 19.8359 32.625 18.7812V23.7734C30.7969 24.8984 29.1797 25.5312 27.4219 25.6719V20.6094C25.5234 20.8906 24.0469 20.75 22.2188 20.2578V24.9688C20.5312 24.4766 18.9141 23.8438 17.0859 23.4922V18.6406C15.6797 18.3594 14.2031 18.2188 11.8828 18.4297V13.5078C10.3359 13.7188 8.78906 14.2109 6.75 14.9844V9.99219C9.07031 9.14844 10.2656 8.58594 11.8828 8.44531V13.5078C13.7812 13.2266 15.3281 13.3672 17.0859 13.8594V9.14844C18.7031 9.64062 20.3906 10.3438 22.2188 10.625V15.4766C23.9062 15.8281 25.5938 15.9688 27.4219 15.6172V10.5547C29.3203 10.2734 31.0781 9.64062 32.625 9.00781V13.9297Z" fill="white"/>
</svg>
