<svg width="316" height="72" viewBox="0 0 316 72" fill="none" xmlns="http://www.w3.org/2000/svg">
<path d="M98.6822 11.129C98.1033 8.97777 96.9741 7.01662 95.4071 5.44083C93.8401 3.86505 91.8899 2.7296 89.7508 2.14759C81.9193 0 50.4033 0 50.4033 0C50.4033 0 18.886 0.0651724 11.0557 2.21276C8.91673 2.79487 6.9667 3.93035 5.39981 5.50614C3.83292 7.08192 2.70384 9.04302 2.12502 11.1941C-0.24375 25.1876 -1.16274 46.5089 2.18982 59.9419C2.76865 62.093 3.89772 64.0541 5.46462 65.6299C7.03151 67.2056 8.98154 68.3411 11.1205 68.9232C18.9514 71.0708 50.4681 71.0708 50.4681 71.0708C50.4681 71.0708 81.9848 71.0708 89.8156 68.9232C91.9546 68.3411 93.9047 67.2056 95.4715 65.6299C97.0384 64.0541 98.1675 62.093 98.7463 59.9419C101.244 45.9292 102.014 24.6209 98.6815 11.1296L98.6822 11.129Z" fill="#FF0000"/>
<path d="M40.3721 50.7648L66.5174 35.5355L40.3721 20.3057V50.7648Z" fill="white"/>
<path d="M303.185 20.6319C306.615 20.6319 309.204 21.2823 311.016 22.5188C312.828 23.7558 314.123 25.7079 314.899 28.3768C315.675 31.0452 315.999 34.6892 315.999 39.3755V46.9907H299.367V49.3332L299.626 55.7766C299.82 57.2085 300.144 58.25 300.661 58.9005C301.179 59.5516 302.02 59.8768 303.121 59.8768C304.609 59.8768 305.645 59.2915 306.162 58.1203C306.745 56.9484 307.003 54.9957 307.068 52.3274L315.675 52.8481C315.74 53.2386 315.74 53.7593 315.74 54.4098C315.74 58.5101 314.64 61.5695 312.375 63.5867C310.11 65.6039 307.003 66.6455 302.926 66.6455C298.008 66.6455 294.578 65.0838 292.636 62.025C290.695 58.9657 289.66 54.1491 289.66 47.7063V39.831C289.879 28.7672 291.814 20.6641 303.185 20.6319ZM183.525 21.4779V54.0846C183.525 56.0372 183.719 57.4692 184.172 58.3152C185.091 60.1245 187.473 59.6621 188.767 58.7708C189.514 58.2629 190.116 57.5675 190.514 56.7535V21.4772H200.416V65.9292H192.65L191.808 60.4621H191.614C189.479 64.5624 186.307 66.6448 182.101 66.6448C175.627 66.6287 174.043 61.9375 173.665 57.1731L173.641 56.8373C173.594 56.1157 173.567 55.393 173.559 54.6699V21.4779H183.524H183.525ZM234.586 21.4779V54.0846C234.586 56.0372 234.78 57.4692 235.233 58.3152C236.153 60.1245 238.534 59.6621 239.828 58.7708C240.575 58.2629 241.177 57.5675 241.575 56.7535V21.4772H251.477V65.9292H243.711L242.869 60.4621H242.676C240.54 64.5624 237.368 66.6448 233.162 66.6448C226.688 66.6287 225.104 61.9375 224.727 57.1731L224.702 56.8373C224.655 56.1157 224.628 55.393 224.62 54.6699V21.4779H234.586ZM154.791 20.6319C158.027 20.6319 160.68 21.2823 162.622 22.6491C164.563 24.0159 166.051 26.0989 166.957 28.9621C167.863 31.826 168.316 35.6656 168.316 40.417V46.8597C168.316 51.6111 167.863 55.3861 166.957 58.2494C166.051 61.1139 164.627 63.1963 162.622 64.563C160.616 65.8646 157.897 66.5803 154.532 66.5803C151.037 66.6455 148.319 65.9298 146.313 64.6282C144.307 63.2615 142.883 61.1784 142.042 58.3152C141.2 55.4513 140.812 51.6763 140.812 46.9255V40.4815C140.812 35.7301 141.265 31.8254 142.236 28.9615C143.207 26.0331 144.695 23.9501 146.766 22.6491C148.837 21.3469 151.49 20.6312 154.791 20.6312V20.6319ZM267.009 2.79883V26.2286H267.074C267.98 24.5366 269.144 23.1699 270.763 22.1283C272.274 21.1065 274.054 20.5627 275.875 20.5667C278.269 20.5667 280.082 21.2172 281.441 22.4536C282.8 23.7558 283.77 25.773 284.352 28.5717C284.917 31.2829 285.238 35.0325 285.258 39.7609L285.259 40.2221V47.2508C285.259 53.8239 284.417 58.7056 282.864 61.8295C281.247 64.9534 278.787 66.5157 275.422 66.5157C273.546 66.5157 271.862 66.0601 270.31 65.2141C268.936 64.4092 267.797 63.255 267.008 61.8674L266.879 61.634H266.685L265.65 65.8646H257.431V2.79945H267.009V2.79883ZM227.402 5.07676V13.1463H217.565V65.9292H207.858V13.147H197.957V5.07738H227.403L227.402 5.07676ZM120.685 5.07676L120.691 5.10159C120.785 5.52428 122.094 11.3743 123.533 18.1901L123.647 18.7301L123.818 19.5463L123.933 20.0943L123.99 20.3693L124.105 20.9205L124.163 21.1967L124.277 21.7497L124.444 22.5585C125.416 27.2782 126.343 32.0116 126.898 35.4055H127.157C127.689 32.361 128.461 28.465 129.284 24.487L129.5 23.4479C129.609 22.9278 129.717 22.4077 129.827 21.8888L129.996 21.0837C131.114 15.8121 132.266 10.5477 133.451 5.2909L133.469 5.2071L133.499 5.07676H143.4L131.945 46.1447V65.8646H122.173V46.2092H122.109L110.783 5.07614H120.685V5.07676ZM154.596 27.5302C153.237 27.5302 152.331 28.2465 151.749 29.7436C151.166 31.2401 150.908 33.518 150.908 36.7077V50.5702C150.908 53.8245 151.167 56.2321 151.684 57.6647C152.202 59.096 153.173 59.8123 154.596 59.8123C155.955 59.8123 156.926 59.096 157.509 57.6647C158.091 56.2321 158.35 53.8245 158.35 50.5702V36.7071C158.35 33.518 158.091 31.1749 157.509 29.743C156.926 28.2465 155.955 27.5302 154.596 27.5302ZM268.756 28.8324C267.967 29.5648 267.406 30.4679 267.072 31.597L267.009 31.826V57.0781C267.811 58.4449 268.951 59.3561 270.956 59.4212C271.992 59.4212 272.833 59.0308 273.481 58.25C274.128 57.4692 274.581 56.167 274.839 54.3446C275.088 52.5955 275.217 50.186 275.227 47.1173V40.9377C275.227 37.4234 275.098 34.755 274.904 32.8675C274.645 30.98 274.322 29.6132 273.739 28.8324C272.613 27.205 270.18 27.2248 268.756 28.8324ZM302.992 27.3353C301.891 27.4005 301.114 27.7257 300.661 28.3117C300.144 28.9621 299.82 29.9385 299.626 31.3704C299.435 32.7732 299.37 37.6766 299.367 37.8728V41.0681H306.615V38.2501V38.3041C306.611 39.2892 306.59 37.7325 306.546 35.8214L306.54 35.5644C306.499 33.8848 306.44 32.0122 306.356 31.3704C306.162 29.8733 305.838 28.8318 305.321 28.2465C304.803 27.6606 304.027 27.3353 302.991 27.3353H302.992Z" fill="white"/>
</svg>
